<?xml version="1.0" encoding="UTF-8" standalone="no"?>
<svg
   xmlns:dc="http://purl.org/dc/elements/1.1/"
   xmlns:cc="http://creativecommons.org/ns#"
   xmlns:rdf="http://www.w3.org/1999/02/22-rdf-syntax-ns#"
   xmlns:svg="http://www.w3.org/2000/svg"
   xmlns="http://www.w3.org/2000/svg"
   xmlns:sodipodi="http://sodipodi.sourceforge.net/DTD/sodipodi-0.dtd"
   xmlns:inkscape="http://www.inkscape.org/namespaces/inkscape"
   id="svg8"
   version="1.1"
   viewBox="0 0 225.90088 39.378829"
   height="39.37883mm"
   width="225.90088mm"
   sodipodi:docname="andemx4.simple.svg"
   inkscape:version="0.92.3 (2405546, 2018-03-11)">
  <sodipodi:namedview
     pagecolor="#ffffff"
     bordercolor="#666666"
     borderopacity="1"
     objecttolerance="10"
     gridtolerance="10"
     guidetolerance="10"
     inkscape:pageopacity="0"
     inkscape:pageshadow="2"
     inkscape:window-width="1920"
     inkscape:window-height="1017"
     id="namedview832"
     showgrid="false"
     inkscape:zoom="1.6865804"
     inkscape:cx="426.8993"
     inkscape:cy="74.416687"
     inkscape:window-x="-8"
     inkscape:window-y="-8"
     inkscape:window-maximized="1"
     inkscape:current-layer="svg8" />
  <defs
     id="defs2" />
  <metadata
     id="metadata5">
    <rdf:RDF>
      <cc:Work
         rdf:about="">
        <dc:format>image/svg+xml</dc:format>
        <dc:type
           rdf:resource="http://purl.org/dc/dcmitype/StillImage" />
        <dc:title></dc:title>
      </cc:Work>
    </rdf:RDF>
  </metadata>
  <g
     transform="translate(-26.293472,-85.745952)"
     id="layer2">
    <path
       id="path4605"
       d="m 87.647639,124.61766 c 0,0 0,-8.17014 0,-13.27646 8e-6,-7.14887 -6.105757,-13.276469 -13.229161,-13.276468 -7.123399,0 -13.229172,6.127598 -13.229172,13.276468 0,4.42548 0,13.27646 0,13.27646"
       style="fill:none;stroke:#000000;stroke-width:1;stroke-linecap:round;stroke-linejoin:miter;stroke-miterlimit:4;stroke-dasharray:none;stroke-opacity:1" />
    <path
       id="path4693"
       d="m 129.98097,111.38849 h 26.45834"
       style="fill:none;stroke:#000000;stroke-width:1;stroke-linecap:round;stroke-linejoin:miter;stroke-miterlimit:4;stroke-dasharray:none;stroke-opacity:1" />
    <path
       id="path4697"
       d="m 156.43931,111.38849 c 0,-7.09126 -6.10577,-13.229166 -13.22917,-13.229178 -7.1234,0 -13.22916,6.105778 -13.22917,13.229178 -1e-5,7.1234 6.10577,13.22917 13.22917,13.22917 6.3093,0 9.76922,-4.47757 9.76922,-4.47757"
       style="fill:none;stroke:#000000;stroke-width:1;stroke-linecap:round;stroke-linejoin:miter;stroke-miterlimit:4;stroke-dasharray:none;stroke-opacity:1" />
    <path
       id="path4605-2"
       d="m 190.83514,124.61766 c 0,0 0,-8.14103 0,-13.22917 1e-5,-7.1234 -6.10576,-13.229185 -13.22916,-13.229185 -7.1234,10e-7 -13.22917,6.105785 -13.22917,13.229185 0,4.40972 0,13.22917 0,13.22917"
       style="fill:none;stroke:#000000;stroke-width:1;stroke-linecap:round;stroke-linejoin:miter;stroke-miterlimit:4;stroke-dasharray:none;stroke-opacity:1" />
    <path
       id="path4607-7"
       d="M 164.37681,111.38849 V 98.159305"
       style="fill:none;stroke:#000000;stroke-width:1;stroke-linecap:round;stroke-linejoin:miter;stroke-miterlimit:4;stroke-dasharray:none;stroke-opacity:1" />
    <path
       id="path4605-2-5"
       d="m 217.29347,124.61766 c 0,0 0,-8.14104 0,-13.22918 10e-6,-7.1234 -6.10576,-13.229184 -13.22916,-13.229183 -7.1234,1e-6 -13.22917,6.105783 -13.22917,13.229183 0,4.40973 0,13.22918 0,13.22918"
       style="fill:none;stroke:#000000;stroke-width:1;stroke-linecap:round;stroke-linejoin:miter;stroke-miterlimit:4;stroke-dasharray:none;stroke-opacity:1" />
    <path
       id="path4607-4"
       d="M 53.251806,124.61766 V 111.38849"
       style="fill:none;stroke:#000000;stroke-width:1;stroke-linecap:round;stroke-linejoin:miter;stroke-miterlimit:4;stroke-dasharray:none;stroke-opacity:1" />
    <path
       id="path4832"
       d="m 53.26144,111.39812 c 0,-6.61458 -5.29168,-13.271191 -13.19393,-13.248369 -6.64982,0.0192 -13.264408,5.310869 -13.264408,13.248369 0,7.9375 6.614588,13.22917 13.229168,13.22917 6.61458,0 13.22917,-5.29167 13.22917,-13.22917 z"
       style="fill:none;stroke:#000000;stroke-width:1;stroke-linecap:round;stroke-linejoin:miter;stroke-miterlimit:4;stroke-dasharray:none;stroke-opacity:1"
       inkscape:connector-curvature="0" />
    <path
       id="path4607-4-6"
       d="M 61.189306,111.38849 V 98.159323"
       style="fill:none;stroke:#000000;stroke-width:1;stroke-linecap:round;stroke-linejoin:miter;stroke-miterlimit:4;stroke-dasharray:none;stroke-opacity:1" />
    <path
       id="path4607-4-1"
       d="M 122.04347,111.38849 V 86.253073"
       style="fill:none;stroke:#000000;stroke-width:1;stroke-linecap:round;stroke-linejoin:miter;stroke-miterlimit:4;stroke-dasharray:none;stroke-opacity:1" />
    <path
       id="path4832-4"
       d="m 122.05311,111.39813 c 0,-6.61459 -5.29168,-13.271201 -13.19393,-13.248381 -6.64982,0.0192 -13.264411,5.310871 -13.264411,13.248381 0,7.93749 6.614591,13.22916 13.229171,13.22916 6.61458,0 13.22917,-5.29167 13.22917,-13.22916 z"
       style="fill:none;stroke:#000000;stroke-width:1;stroke-linecap:round;stroke-linejoin:miter;stroke-miterlimit:4;stroke-dasharray:none;stroke-opacity:1"
       inkscape:connector-curvature="0" />
    <path
       id="path4955"
       d="M 225.23097,98.159322 251.6893,124.61766"
       style="fill:none;stroke:#000000;stroke-width:1;stroke-linecap:round;stroke-linejoin:miter;stroke-miterlimit:4;stroke-dasharray:none;stroke-opacity:1" />
    <path
       id="path4957"
       d="M 251.6893,98.159322 225.23097,124.61766"
       style="fill:none;stroke:#000000;stroke-width:1;stroke-linecap:round;stroke-linejoin:miter;stroke-miterlimit:4;stroke-dasharray:none;stroke-opacity:1" />
  </g>
</svg>
