<?xml version="1.0" encoding="UTF-8" standalone="no"?>
<!-- Created with Inkscape (http://www.inkscape.org/) -->

<svg>

  <g
     inkscape:label="Calque 1"
     inkscape:groupmode="layer"
     id="layer1"
     transform="translate(-3.7125697,-101.10673)">
    <path
       inkscape:connector-curvature="0"
       d="m 18.668091,113.56967 q 4.172373,0 7.531946,2.00491 3.413761,1.95072 5.36448,5.41866 2.004906,3.41376 2.004906,7.64032 v 12.08363 q 0,1.1921 -0.8128,2.0049 -0.758613,0.75862 -1.95072,0.75862 -1.192105,0 -2.004905,-0.75862 -0.758614,-0.8128 -0.758614,-2.0049 v -2.00491 q -1.896533,2.33003 -4.605867,3.63051 -2.709333,1.30048 -5.85216,1.30048 -3.90144,0 -7.098453,-1.95072 -3.1428273,-1.95072 -4.9851743,-5.36448 -1.78816,-3.46795 -1.78816,-7.69451 0,-4.22656 1.95072,-7.64032 1.95072,-3.46794 5.3644803,-5.41866 3.467947,-2.00491 7.640321,-2.00491 z m 0,25.1968 q 2.709333,0 4.8768,-1.30048 2.221653,-1.35467 3.467946,-3.63051 1.246294,-2.33003 1.246294,-5.20192 0,-2.87189 -1.246294,-5.20192 -1.246293,-2.33002 -3.467946,-3.6305 -2.167467,-1.35467 -4.8768,-1.35467 -2.709334,0 -4.930987,1.35467 -2.167467,1.30048 -3.467947,3.6305 -1.2462933,2.33003 -1.2462933,5.20192 0,2.87189 1.2462933,5.20192 1.30048,2.27584 3.467947,3.63051 2.221653,1.30048 4.930987,1.30048 z"
       style="font-style:normal;font-variant:normal;font-weight:bold;font-stretch:normal;font-size:54.1866684px;line-height:1.25;font-family:comfortaa;-inkscape-font-specification:'comfortaa Bold';letter-spacing:0px;word-spacing:0px;fill:#000000;fill-opacity:1;stroke:none;stroke-width:0.26458293"
       id="path3957" />
    <path
       inkscape:connector-curvature="0"
       d="m 56.586907,113.51548 q 3.73888,0 6.71915,1.6256 2.98026,1.6256 4.66005,4.76843 1.67979,3.08864 1.67979,7.47776 v 13.32992 q 0,1.1921 -0.8128,2.0049 -0.75862,0.75862 -1.95072,0.75862 -1.19211,0 -2.00491,-0.75862 -0.75861,-0.8128 -0.75861,-2.0049 v -13.32992 q 0,-4.38912 -2.38422,-6.61077 -2.33002,-2.27584 -6.23146,-2.27584 -2.27584,0 -4.17238,0.92117 -1.84234,0.92117 -2.92608,2.49259 -1.02954,1.57141 -1.02954,3.52213 v 15.28064 q 0,1.1921 -0.75862,2.0049 -0.75861,0.75862 -2.0049,0.75862 -1.19211,0 -2.00491,-0.75862 -0.75861,-0.8128 -0.75861,-2.0049 v -24.16725 q 0,-1.2463 0.75861,-2.00491 0.8128,-0.75861 2.00491,-0.75861 1.24629,0 2.0049,0.75861 0.75862,0.75861 0.75862,2.00491 v 0.59605 q 1.73397,-1.73397 4.11818,-2.65515 2.38422,-0.97536 5.09355,-0.97536 z"
       style="font-style:normal;font-variant:normal;font-weight:bold;font-stretch:normal;font-size:54.1866684px;line-height:1.25;font-family:comfortaa;-inkscape-font-specification:'comfortaa Bold';letter-spacing:0px;word-spacing:0px;fill:#000000;fill-opacity:1;stroke:none;stroke-width:0.26458293"
       id="path3959" />
    <path
       inkscape:connector-curvature="0"
       d="m 104.36007,101.10673 q 1.2463,0 2.00491,0.75862 0.75861,0.75861 0.75861,2.0049 v 24.70912 q 0,4.22656 -2.0049,7.69451 -1.95072,3.41376 -5.364483,5.41867 -3.35958,1.95072 -7.53195,1.95072 -4.17238,0 -7.64032,-1.95072 -3.41376,-2.00491 -5.36448,-5.41867 -1.95072,-3.46795 -1.95072,-7.69451 0,-4.22655 1.78816,-7.64031 1.84234,-3.46795 4.98517,-5.41867 3.19701,-1.95072 7.09845,-1.95072 3.14283,0 5.85217,1.30048 2.70933,1.30048 4.605863,3.63051 v -14.63041 q 0,-1.24629 0.75862,-2.0049 0.8128,-0.75862 2.0049,-0.75862 z m -12.137813,37.65974 q 2.70933,0 4.8768,-1.30048 2.22165,-1.35467 3.467953,-3.6847 1.24629,-2.33002 1.24629,-5.20192 0,-2.87189 -1.24629,-5.14773 -1.246303,-2.33002 -3.467953,-3.6305 -2.16747,-1.35467 -4.8768,-1.35467 -2.70934,0 -4.93099,1.35467 -2.16747,1.30048 -3.46795,3.6305 -1.24629,2.27584 -1.24629,5.14773 0,2.8719 1.24629,5.20192 1.30048,2.33003 3.46795,3.6847 2.22165,1.30048 4.93099,1.30048 z"
       style="font-style:normal;font-variant:normal;font-weight:bold;font-stretch:normal;font-size:54.1866684px;line-height:1.25;font-family:comfortaa;-inkscape-font-specification:'comfortaa Bold';letter-spacing:0px;word-spacing:0px;fill:#000000;fill-opacity:1;stroke:none;stroke-width:0.26458293"
       id="path3961" />
    <path
       inkscape:connector-curvature="0"
       d="m 143.48962,128.14588 q 0,1.02955 -0.70442,1.73397 -0.70443,0.65024 -1.78816,0.65024 H 120.4061 q 0.59606,3.79307 3.41376,6.1231 2.8719,2.33002 6.99008,2.33002 1.6256,0 3.35958,-0.59605 1.78816,-0.59605 2.92608,-1.46304 0.75861,-0.59605 1.78816,-0.59605 1.02954,0 1.6256,0.54186 0.97536,0.8128 0.97536,1.84235 0,0.97536 -0.86699,1.6256 -1.84235,1.46304 -4.60587,2.38421 -2.70933,0.92118 -5.20192,0.92118 -4.4433,0 -7.96544,-1.89654 -3.52213,-1.95072 -5.52704,-5.36448 -1.95072,-3.41376 -1.95072,-7.74869 0,-4.33493 1.84235,-7.74869 1.89653,-3.46795 5.20192,-5.36448 3.35957,-1.95072 7.58613,-1.95072 4.17238,0 7.20683,1.84235 3.03445,1.84234 4.66005,5.14773 1.6256,3.30539 1.6256,7.58613 z m -13.49248,-9.91616 q -3.95562,0 -6.44821,2.16747 -2.4384,2.16747 -3.08864,5.79797 h 18.04416 q -0.48768,-3.6305 -2.70933,-5.79797 -2.22166,-2.16747 -5.79798,-2.16747 z"
       style="font-style:normal;font-variant:normal;font-weight:bold;font-stretch:normal;font-size:54.1866684px;line-height:1.25;font-family:comfortaa;-inkscape-font-specification:'comfortaa Bold';letter-spacing:0px;word-spacing:0px;fill:#000000;fill-opacity:1;stroke:none;stroke-width:0.26458293"
       id="path3963" />
    <path
       inkscape:connector-curvature="0"
       d="m 181.6963,113.51548 q 4.71424,0 7.58614,3.08864 2.92608,3.08864 2.92608,8.61568 v 15.49739 q 0,1.1921 -0.75862,2.0049 -0.75861,0.75862 -2.0049,0.75862 -1.19211,0 -2.00491,-0.75862 -0.75861,-0.8128 -0.75861,-2.0049 V 125.2198 q 0,-3.30538 -1.67979,-4.98517 -1.6256,-1.73397 -4.38912,-1.73397 -2.81771,0 -4.66005,1.95072 -1.78816,1.95072 -1.78816,4.98517 v 15.28064 q 0,1.1921 -0.75862,2.0049 -0.75861,0.75862 -2.0049,0.75862 -1.19211,0 -2.00491,-0.75862 -0.75861,-0.8128 -0.75861,-2.0049 V 125.2198 q 0,-3.30538 -1.67979,-4.98517 -1.6256,-1.73397 -4.38912,-1.73397 -2.87189,0 -4.71424,1.95072 -1.78816,1.95072 -1.78816,4.98517 v 15.28064 q 0,1.1921 -0.75861,2.0049 -0.75862,0.75862 -2.00491,0.75862 -1.19211,0 -2.00491,-0.75862 -0.75861,-0.8128 -0.75861,-2.0049 v -24.11307 q 0,-1.24629 0.75861,-2.0049 0.8128,-0.75862 2.00491,-0.75862 1.19211,0 1.95072,0.75862 0.75861,0.70442 0.8128,1.89653 1.40885,-1.40885 3.35957,-2.16747 1.95072,-0.8128 4.22656,-0.8128 2.76352,0 4.93099,1.13792 2.22165,1.08374 3.63051,3.14283 1.6256,-2.00491 4.064,-3.14283 2.4384,-1.13792 5.41866,-1.13792 z"
       style="font-style:normal;font-variant:normal;font-weight:bold;font-stretch:normal;font-size:54.1866684px;line-height:1.25;font-family:comfortaa;-inkscape-font-specification:'comfortaa Bold';letter-spacing:0px;word-spacing:0px;fill:#000000;fill-opacity:1;stroke:none;stroke-width:0.26458293"
       id="path3965" />
    <path
       inkscape:connector-curvature="0"
       d="m 223.82644,139.25415 q 0.75861,0.8128 0.75861,1.89653 0,0.97536 -0.70442,1.6256 -0.65024,0.65024 -1.73398,0.65024 -1.30048,0 -1.95072,-0.86699 l -8.61568,-10.29546 -8.18218,10.29546 q -0.8128,0.86699 -1.95072,0.86699 -1.08374,0 -1.73398,-0.65024 -0.59605,-0.65024 -0.59605,-1.6256 0,-1.08373 0.75861,-2.00491 l 8.39894,-10.51221 -8.9408,-10.5664 q -0.8128,-0.97536 -0.8128,-2.05909 0,-0.92117 0.59605,-1.57141 0.65024,-0.65024 1.78816,-0.65024 1.30048,0 2.05909,0.92117 l 8.88662,10.62059 7.96544,-10.62059 q 0.70442,-0.92117 2.0049,-0.92117 1.08374,0 1.67979,0.70442 0.65024,0.65024 0.65024,1.6256 0,1.19211 -0.75861,2.16747 l -8.18219,10.67477 z"
       style="font-style:normal;font-variant:normal;font-weight:bold;font-stretch:normal;font-size:54.1866684px;line-height:1.25;font-family:comfortaa;-inkscape-font-specification:'comfortaa Bold';letter-spacing:0px;word-spacing:0px;fill:#000000;fill-opacity:1;stroke:none;stroke-width:0.26458293"
       id="path3967" />
  </g>
</svg>
