<?xml version="1.0" encoding="UTF-8" standalone="no"?>
<!-- Created with Inkscape (http://www.inkscape.org/) -->

<svg
   xmlns:dc="http://purl.org/dc/elements/1.1/"
   xmlns:cc="http://creativecommons.org/ns#"
   xmlns:rdf="http://www.w3.org/1999/02/22-rdf-syntax-ns#"
   xmlns:svg="http://www.w3.org/2000/svg"
   xmlns="http://www.w3.org/2000/svg"
   xmlns:sodipodi="http://sodipodi.sourceforge.net/DTD/sodipodi-0.dtd"
   xmlns:inkscape="http://www.inkscape.org/namespaces/inkscape"
   width="512"
   height="512"
   viewBox="0 0 135.46666 135.46667"
   version="1.1"
   id="svg946"
   inkscape:version="0.92.3 (2405546, 2018-03-11)"
   sodipodi:docname="logo-andemxv2-6-propre.svg">
  <defs
     id="defs940" />
  <sodipodi:namedview
     id="base"
     pagecolor="#ffffff"
     bordercolor="#666666"
     borderopacity="1.0"
     inkscape:pageopacity="0.0"
     inkscape:pageshadow="2"
     inkscape:zoom="1"
     inkscape:cx="241.53529"
     inkscape:cy="226.03649"
     inkscape:document-units="px"
     inkscape:current-layer="layer8"
     showgrid="false"
     units="px"
     inkscape:window-width="1920"
     inkscape:window-height="1017"
     inkscape:window-x="1912"
     inkscape:window-y="-8"
     inkscape:window-maximized="1"
     inkscape:snap-bbox="true"
     inkscape:object-paths="true"
     inkscape:snap-smooth-nodes="true"
     inkscape:snap-intersection-paths="true"
     inkscape:snap-midpoints="true"
     inkscape:snap-bbox-midpoints="true"
     inkscape:snap-bbox-edge-midpoints="true"
     inkscape:bbox-nodes="true"
     inkscape:bbox-paths="true"
     inkscape:snap-object-midpoints="true"
     inkscape:snap-center="true"
     inkscape:snap-grids="false" />
  <metadata
     id="metadata943">
    <rdf:RDF>
      <cc:Work
         rdf:about="">
        <dc:format>image/svg+xml</dc:format>
        <dc:type
           rdf:resource="http://purl.org/dc/dcmitype/StillImage" />
        <dc:title></dc:title>
      </cc:Work>
    </rdf:RDF>
  </metadata>
  <g
     inkscape:label="Calque 1"
     inkscape:groupmode="layer"
     id="layer1"
     transform="translate(0,-161.53331)"
     sodipodi:insensitive="true"
     style="display:none">
    <path
       style="fill:none;fill-opacity:1;stroke:#000000;stroke-width:0;stroke-linecap:round;stroke-linejoin:round;stroke-miterlimit:4;stroke-dasharray:none;stroke-opacity:1;paint-order:normal"
       d="M 93.607462,229.26665 A 25.874132,25.874132 0 0 1 67.73333,255.14078 25.874132,25.874132 0 0 1 41.859198,229.26665 25.874132,25.874132 0 0 1 67.73333,203.39252 25.874132,25.874132 0 0 1 93.607462,229.26665 Z"
       id="path1708"
       inkscape:connector-curvature="0" />
    <path
       style="fill:none;fill-opacity:1;stroke:#000000;stroke-width:0;stroke-linecap:round;stroke-linejoin:round;stroke-miterlimit:4;stroke-dasharray:none;stroke-opacity:1;paint-order:normal"
       d="M 135.46666,229.26665 A 67.73333,67.73333 0 0 1 67.73333,296.99998 67.73333,67.73333 0 0 1 0,229.26665 a 67.73333,67.73333 0 0 1 67.73333,-67.73333 67.73333,67.73333 0 0 1 67.73333,67.73333 z"
       id="path1706"
       inkscape:connector-curvature="0" />
    <path
       style="fill:none;fill-opacity:1;stroke:#000000;stroke-width:0;stroke-linecap:round;stroke-linejoin:round;stroke-miterlimit:4;stroke-dasharray:none;stroke-opacity:1;paint-order:normal"
       d="M 9.0745457,263.13331 126.39211,195.39998"
       id="path1704"
       inkscape:connector-curvature="0" />
    <path
       style="fill:none;fill-opacity:1;stroke:#000000;stroke-width:0;stroke-linecap:round;stroke-linejoin:round;stroke-miterlimit:4;stroke-dasharray:none;stroke-opacity:1;paint-order:normal"
       d="M 9.0745454,195.39998 126.39211,263.13331"
       id="path1702"
       inkscape:connector-curvature="0" />
    <path
       style="fill:none;fill-opacity:1;stroke:#000000;stroke-width:0;stroke-linecap:round;stroke-linejoin:round;stroke-miterlimit:4;stroke-dasharray:none;stroke-opacity:1;paint-order:normal"
       d="m 126.39211,195.39998 v 67.73333 l -58.65878,33.86667 -58.6587843,-33.86667 -3e-7,-67.73333 58.6587836,-33.86666 z"
       id="path1584-9"
       inkscape:connector-curvature="0" />
    <path
       inkscape:connector-curvature="0"
       style="fill:none;fill-opacity:1;stroke:#000000;stroke-width:0;stroke-linecap:round;stroke-linejoin:round;stroke-miterlimit:4;stroke-dasharray:none;stroke-opacity:1;paint-order:normal"
       d="M 152.27013,195.40672 A 25.874132,25.874132 0 0 1 126.396,221.28085 25.874132,25.874132 0 0 1 100.52187,195.40672 25.874132,25.874132 0 0 1 126.396,169.53259 25.874132,25.874132 0 0 1 152.27013,195.40672 Z"
       id="path1708-1" />
    <path
       inkscape:connector-curvature="0"
       style="fill:none;fill-opacity:1;stroke:#000000;stroke-width:0;stroke-linecap:round;stroke-linejoin:round;stroke-miterlimit:4;stroke-dasharray:none;stroke-opacity:1;paint-order:normal"
       d="m 93.60746,161.53332 a 25.874132,25.874132 0 0 1 -25.874131,25.87413 25.874132,25.874132 0 0 1 -25.87413,-25.87413 25.874132,25.874132 0 0 1 25.87413,-25.87413 25.874132,25.874132 0 0 1 25.874131,25.87413 z"
       id="path1708-1-2" />
    <path
       inkscape:connector-curvature="0"
       style="fill:none;fill-opacity:1;stroke:#000000;stroke-width:0;stroke-linecap:round;stroke-linejoin:round;stroke-miterlimit:4;stroke-dasharray:none;stroke-opacity:1;paint-order:normal"
       d="M 34.944784,195.40673 A 25.874132,25.874132 0 0 1 9.0706527,221.28086 25.874132,25.874132 0 0 1 -16.803477,195.40673 25.874132,25.874132 0 0 1 9.0706527,169.5326 25.874132,25.874132 0 0 1 34.944784,195.40673 Z"
       id="path1708-1-5" />
    <path
       inkscape:connector-curvature="0"
       style="fill:none;fill-opacity:1;stroke:#000000;stroke-width:0;stroke-linecap:round;stroke-linejoin:round;stroke-miterlimit:4;stroke-dasharray:none;stroke-opacity:1;paint-order:normal"
       d="M 34.944784,263.12657 A 25.874132,25.874132 0 0 1 9.0706531,289.0007 25.874132,25.874132 0 0 1 -16.803477,263.12657 25.874132,25.874132 0 0 1 9.0706531,237.25244 25.874132,25.874132 0 0 1 34.944784,263.12657 Z"
       id="path1708-1-4" />
    <path
       inkscape:connector-curvature="0"
       style="fill:none;fill-opacity:1;stroke:#000000;stroke-width:0;stroke-linecap:round;stroke-linejoin:round;stroke-miterlimit:4;stroke-dasharray:none;stroke-opacity:1;paint-order:normal"
       d="M 93.60746,296.99998 A 25.874132,25.874132 0 0 1 67.733329,322.87411 25.874132,25.874132 0 0 1 41.8592,296.99998 25.874132,25.874132 0 0 1 67.733329,271.12585 25.874132,25.874132 0 0 1 93.60746,296.99998 Z"
       id="path1708-1-3" />
    <path
       inkscape:connector-curvature="0"
       style="fill:none;fill-opacity:1;stroke:#000000;stroke-width:0;stroke-linecap:round;stroke-linejoin:round;stroke-miterlimit:4;stroke-dasharray:none;stroke-opacity:1;paint-order:normal"
       d="m 152.26624,263.13331 a 25.874132,25.874132 0 0 1 -25.87413,25.87413 25.874132,25.874132 0 0 1 -25.87413,-25.87413 25.874132,25.874132 0 0 1 25.87413,-25.87413 25.874132,25.874132 0 0 1 25.87413,25.87413 z"
       id="path1708-1-1" />
  </g>
  <g
     inkscape:groupmode="layer"
     id="layer8"
     inkscape:label="Calque 2"
     style="display:inline">
    <path
       style="fill:none;fill-rule:evenodd;stroke:#000000;stroke-width:0.52916666;stroke-linecap:butt;stroke-linejoin:miter;stroke-opacity:1;stroke-miterlimit:4;stroke-dasharray:none"
       d="M 67.73333,1e-5 9.0785107,33.859808 9.078502,101.60686 67.73333,135.46667 126.39211,101.6 V 33.866669 Z"
       id="path1777"
       inkscape:connector-curvature="0" />
    <path
       style="fill:none;fill-rule:evenodd;stroke:#000000;stroke-width:0.52916666;stroke-linecap:butt;stroke-linejoin:miter;stroke-opacity:1;stroke-miterlimit:4;stroke-dasharray:none"
       d="M 9.0785107,33.86896 67.733327,67.733335 126.39211,33.866669"
       id="path1779"
       inkscape:connector-curvature="0" />
    <path
       style="fill:none;fill-rule:evenodd;stroke:#000000;stroke-width:0.52916666;stroke-linecap:butt;stroke-linejoin:miter;stroke-opacity:1;stroke-miterlimit:4;stroke-dasharray:none"
       d="m 67.733327,67.733335 3e-6,67.733335"
       id="path1781"
       inkscape:connector-curvature="0" />
    <path
       style="fill:none;fill-rule:evenodd;stroke:#000000;stroke-width:0.52916666;stroke-linecap:butt;stroke-linejoin:miter;stroke-opacity:1;stroke-miterlimit:4;stroke-dasharray:none"
       d="M 103.98483,114.53685 90.140979,54.796266"
       id="path1783"
       inkscape:connector-curvature="0" />
    <path
       style="fill:none;fill-rule:evenodd;stroke:#000000;stroke-width:0.52916666;stroke-linecap:butt;stroke-linejoin:miter;stroke-opacity:1;stroke-miterlimit:4;stroke-dasharray:none"
       d="M 90.140609,12.936858 45.32568,54.796266"
       id="path1785"
       inkscape:connector-curvature="0" />
    <path
       style="fill:none;fill-rule:evenodd;stroke:#000000;stroke-width:0.52916666;stroke-linecap:butt;stroke-linejoin:miter;stroke-opacity:1;stroke-miterlimit:4;stroke-dasharray:none"
       d="M 67.733327,93.607471 9.078506,75.719132"
       id="path1787"
       inkscape:connector-curvature="0" />
  </g>
  <g
     inkscape:groupmode="layer"
     id="layer9"
     inkscape:label="Calque 3"
     sodipodi:insensitive="true"
     style="display:none">
    <path
       style="fill:none;fill-rule:evenodd;stroke:#000000;stroke-width:0.26458332px;stroke-linecap:butt;stroke-linejoin:miter;stroke-opacity:1"
       d="M 90.140979,54.796271 126.39211,33.866669 90.140609,12.936858 45.32568,54.796266 9.0745904,33.866597 45.326051,12.936857"
       id="path1792"
       inkscape:connector-curvature="0" />
  </g>
  <g
     inkscape:groupmode="layer"
     id="layer2"
     inkscape:label="Calque 4"
     sodipodi:insensitive="true"
     style="display:none">
    <path
       style="fill:#000000;fill-opacity:1;fill-rule:evenodd;stroke:none;stroke-width:0.26458332px;stroke-linecap:butt;stroke-linejoin:miter;stroke-opacity:1"
       d="M 67.73333,135.46667 9.078502,101.60686 9.0785107,33.86896 67.73333,1e-5 126.39211,33.866669 V 101.6 Z"
       id="path833"
       inkscape:connector-curvature="0" />
    <path
       style="fill:none;fill-opacity:0.27040818;fill-rule:evenodd;stroke:#ffffff;stroke-width:0.52916664;stroke-linecap:butt;stroke-linejoin:round;stroke-miterlimit:4;stroke-dasharray:none;stroke-opacity:1;paint-order:normal"
       d="M 90.328196,12.761489 45.325654,54.796238"
       id="path835"
       inkscape:connector-curvature="0" />
    <path
       style="fill:none;fill-opacity:0.27040818;fill-rule:evenodd;stroke:#ffffff;stroke-width:0.52916658;stroke-linecap:butt;stroke-linejoin:round;stroke-miterlimit:4;stroke-dasharray:none;stroke-opacity:1;paint-order:normal"
       d="M 104.20154,115.44989 90.143048,54.795283"
       id="path837"
       inkscape:connector-curvature="0" />
    <path
       style="fill:none;fill-opacity:0.27040818;fill-rule:evenodd;stroke:#ffffff;stroke-width:0.5291667;stroke-linecap:butt;stroke-linejoin:round;stroke-miterlimit:4;stroke-dasharray:none;stroke-opacity:1;paint-order:normal"
       d="M 67.733782,93.606644 8.6551033,75.587668"
       id="path839"
       inkscape:connector-curvature="0" />
    <path
       style="fill:none;fill-rule:evenodd;stroke:#ffffff;stroke-width:0.52916664;stroke-linecap:square;stroke-linejoin:round;stroke-miterlimit:4;stroke-dasharray:none;stroke-opacity:1;paint-order:normal"
       d="M 9.0785107,33.86896 67.733327,67.733335"
       id="path850"
       inkscape:connector-curvature="0" />
    <path
       style="fill:none;fill-rule:evenodd;stroke:#ffffff;stroke-width:0.52916664;stroke-linecap:square;stroke-linejoin:round;stroke-miterlimit:4;stroke-dasharray:none;stroke-opacity:1;paint-order:normal"
       d="M 126.39211,33.866669 67.733327,67.733335"
       id="path852"
       inkscape:connector-curvature="0" />
    <path
       style="fill:none;fill-rule:evenodd;stroke:#ffffff;stroke-width:0.52916664;stroke-linecap:square;stroke-linejoin:round;stroke-miterlimit:4;stroke-dasharray:none;stroke-opacity:1;paint-order:normal"
       d="m 67.73333,135.46667 0.0019,-67.73333"
       id="path854"
       inkscape:connector-curvature="0" />
  </g>
</svg>
