<?xml version="1.0" encoding="UTF-8" standalone="no"?>
<svg
   xmlns:dc="http://purl.org/dc/elements/1.1/"
   xmlns:cc="http://creativecommons.org/ns#"
   xmlns:rdf="http://www.w3.org/1999/02/22-rdf-syntax-ns#"
   xmlns:svg="http://www.w3.org/2000/svg"
   xmlns="http://www.w3.org/2000/svg"
   id="svg8"
   version="1.1"
   viewBox="0 0 251.61874 53.18125"
   height="53.181252mm"
   width="251.61874mm">
  <defs
     id="defs2" />
  <metadata
     id="metadata5">
    <rdf:RDF>
      <cc:Work
         rdf:about="">
        <dc:format>image/svg+xml</dc:format>
        <dc:type
           rdf:resource="http://purl.org/dc/dcmitype/StillImage" />
        <dc:title></dc:title>
      </cc:Work>
    </rdf:RDF>
  </metadata>
  <g
     style="display:inline"
     transform="translate(12.861458,0.94808911)"
     id="layer1">
    <path
       id="path867"
       d="m 130.14583,38.871704 v 0"
       style="fill:none;stroke:#000000;stroke-width:2;stroke-linecap:round;stroke-linejoin:round;stroke-miterlimit:4;stroke-dasharray:none;stroke-opacity:1;paint-order:normal" />
    <path
       id="path869"
       d="m 34.895832,12.413371 v 26.458333 c 0,0 0,-11.90625 0,-13.229167 0,-6.614583 5.291668,-13.229166 13.229166,-13.229166 7.937502,0 13.229167,6.614583 13.229167,13.229166 0,1.322917 0,13.229167 0,13.229167"
       style="fill:none;stroke:#000000;stroke-width:2;stroke-linecap:round;stroke-linejoin:round;stroke-miterlimit:4;stroke-dasharray:none;stroke-opacity:1;paint-order:normal" />
    <path
       id="path871"
       d="m 95.752065,0.50834946 -0.0031,25.13334954 c -8.08e-4,6.614584 -5.288564,13.169222 -13.226067,13.169222 -7.937497,0 -13.229166,-6.552571 -13.229166,-13.167155 0,-6.614583 5.291669,-13.229165 13.229168,-13.229166 7.937501,0 13.227066,6.613354 13.227066,13.227937"
       style="fill:none;stroke:#000000;stroke-width:2;stroke-linecap:round;stroke-linejoin:round;stroke-miterlimit:4;stroke-dasharray:none;stroke-opacity:1;paint-order:normal" />
    <path
       id="path873"
       d="m 138.08333,12.413371 v 26.458333 c 0,0 0,-11.90625 0,-13.229167 0,-6.614583 5.29167,-13.229167 13.22917,-13.229166 7.9375,1e-6 13.22916,6.614583 13.22916,13.229166 0,1.322917 0,13.229167 0,13.229167 0,0 1e-5,-11.90625 1e-5,-13.229167 0,-6.614583 5.29166,-13.229166 13.22916,-13.229166 7.9375,0 13.22917,6.992876 13.22917,13.229166 0,1.322917 0,13.229167 0,13.229167"
       style="fill:none;stroke:#000000;stroke-width:2;stroke-linecap:round;stroke-linejoin:round;stroke-miterlimit:4;stroke-dasharray:none;stroke-opacity:1;paint-order:normal" />
    <path
       id="path881"
       d="m 103.6875,25.642537 h 26.45833 c 0.004,0 0.0119,0.0039 0.0119,-5.4e-5 0,-6.614529 -5.31282,-13.229114 -13.24111,-13.229112 -7.93749,2e-6 -13.22916,6.614583 -13.22916,13.229166 0,6.614584 5.29167,13.229167 13.22916,13.229167 h 5.29167"
       style="fill:none;stroke:#000000;stroke-width:2;stroke-linecap:round;stroke-linejoin:round;stroke-miterlimit:4;stroke-dasharray:none;stroke-opacity:1;paint-order:normal" />
    <path
       id="path885"
       d="m 26.958332,38.871704 c 0,0 0,-11.90625 0,-13.229167 0,-6.614583 -5.291665,-13.229166 -13.229165,-13.229166 -7.9375001,0 -13.22916664,6.614583 -13.22916676,13.229166 -1.3e-7,6.614584 5.29166666,13.229167 13.22916676,13.229167 7.9375,0 13.229167,-6.614583 13.229167,-13.229167"
       style="fill:none;stroke:#000000;stroke-width:2;stroke-linecap:round;stroke-linejoin:round;stroke-miterlimit:4;stroke-dasharray:none;stroke-opacity:1;paint-order:normal" />
    <path
       id="path889"
       d="M 212.16666,25.642537 225.39583,12.413371"
       style="fill:none;stroke:#000000;stroke-width:2;stroke-linecap:round;stroke-linejoin:round;stroke-miterlimit:4;stroke-dasharray:none;stroke-opacity:1" />
    <path
       id="path891"
       d="m 212.16667,25.642537 13.22916,13.229167"
       style="fill:none;stroke:#000000;stroke-width:2;stroke-linecap:round;stroke-linejoin:round;stroke-miterlimit:4;stroke-dasharray:none;stroke-opacity:1" />
    <path
       id="path893"
       d="M 212.16667,25.642537 198.9375,38.871704"
       style="fill:none;stroke:#000000;stroke-width:2;stroke-linecap:round;stroke-linejoin:round;stroke-miterlimit:4;stroke-dasharray:none;stroke-opacity:1" />
    <path
       id="path895"
       d="M 212.16667,25.642537 198.9375,12.413371"
       style="fill:none;stroke:#000000;stroke-width:2;stroke-linecap:round;stroke-linejoin:round;stroke-miterlimit:4;stroke-dasharray:none;stroke-opacity:1" />
    <path
       id="path926"
       d="M 238.625,-0.81579745 V 52.100869 H -12.729166 V -0.81579745 Z"
       style="fill:none;stroke:#000000;stroke-width:0.26458332px;stroke-linecap:butt;stroke-linejoin:miter;stroke-opacity:1" />
  </g>
</svg>
