<?xml version="1.0" encoding="UTF-8" standalone="no"?>
<svg
   xmlns:dc="http://purl.org/dc/elements/1.1/"
   xmlns:cc="http://creativecommons.org/ns#"
   xmlns:rdf="http://www.w3.org/1999/02/22-rdf-syntax-ns#"
   xmlns:svg="http://www.w3.org/2000/svg"
   xmlns="http://www.w3.org/2000/svg"
   id="svg8"
   version="1.1"
   viewBox="0 0 225.90088 39.378829"
   height="39.37883mm"
   width="225.90088mm">
  <defs
     id="defs2" />
  <metadata
     id="metadata5">
    <rdf:RDF>
      <cc:Work
         rdf:about="">
        <dc:format>image/svg+xml</dc:format>
        <dc:type
           rdf:resource="http://purl.org/dc/dcmitype/StillImage" />
        <dc:title></dc:title>
      </cc:Work>
    </rdf:RDF>
  </metadata>
  <g
     transform="translate(-26.293472,-85.745952)"
     id="layer2">
    <path
       id="path4605"
       d="m 87.647639,124.61766 c 0,0 0,-8.17014 0,-13.27646 8e-6,-7.14887 -6.105757,-13.276469 -13.229161,-13.276468 -7.123399,0 -13.229172,6.127598 -13.229172,13.276468 0,4.42548 0,13.27646 0,13.27646"
       style="fill:none;stroke:#000000;stroke-width:1;stroke-linecap:round;stroke-linejoin:miter;stroke-miterlimit:4;stroke-dasharray:none;stroke-opacity:1" />
    <path
       id="path4693"
       d="m 129.98097,111.38849 h 26.45834"
       style="fill:none;stroke:#000000;stroke-width:1;stroke-linecap:round;stroke-linejoin:miter;stroke-miterlimit:4;stroke-dasharray:none;stroke-opacity:1" />
    <path
       id="path4697"
       d="m 156.43931,111.38849 c 0,-7.09126 -6.10577,-13.229166 -13.22917,-13.229178 -7.1234,0 -13.22916,6.105778 -13.22917,13.229178 -1e-5,7.1234 6.10577,13.22917 13.22917,13.22917 6.3093,0 9.76922,-4.47757 9.76922,-4.47757"
       style="fill:none;stroke:#000000;stroke-width:1;stroke-linecap:round;stroke-linejoin:miter;stroke-miterlimit:4;stroke-dasharray:none;stroke-opacity:1" />
    <path
       id="path4605-2"
       d="m 190.83514,124.61766 c 0,0 0,-8.14103 0,-13.22917 1e-5,-7.1234 -6.10576,-13.229185 -13.22916,-13.229185 -7.1234,10e-7 -13.22917,6.105785 -13.22917,13.229185 0,4.40972 0,13.22917 0,13.22917"
       style="fill:none;stroke:#000000;stroke-width:1;stroke-linecap:round;stroke-linejoin:miter;stroke-miterlimit:4;stroke-dasharray:none;stroke-opacity:1" />
    <path
       id="path4607-7"
       d="M 164.37681,111.38849 V 98.159305"
       style="fill:none;stroke:#000000;stroke-width:1;stroke-linecap:round;stroke-linejoin:miter;stroke-miterlimit:4;stroke-dasharray:none;stroke-opacity:1" />
    <path
       id="path4605-2-5"
       d="m 217.29347,124.61766 c 0,0 0,-8.14104 0,-13.22918 10e-6,-7.1234 -6.10576,-13.229184 -13.22916,-13.229183 -7.1234,1e-6 -13.22917,6.105783 -13.22917,13.229183 0,4.40973 0,13.22918 0,13.22918"
       style="fill:none;stroke:#000000;stroke-width:1;stroke-linecap:round;stroke-linejoin:miter;stroke-miterlimit:4;stroke-dasharray:none;stroke-opacity:1" />
    <path
       id="path4607-4"
       d="M 53.251806,124.61766 V 111.38849"
       style="fill:none;stroke:#000000;stroke-width:1;stroke-linecap:round;stroke-linejoin:miter;stroke-miterlimit:4;stroke-dasharray:none;stroke-opacity:1" />
    <path
       id="path4832"
       d="m 40.022639,124.61766 c 6.614583,0 13.271194,-5.29168 13.248372,-13.19393 -0.0192,-6.64982 -5.310872,-13.264408 -13.248372,-13.264408 -7.9375,0 -13.229167,6.614588 -13.229167,13.229168 0,6.61458 5.291667,13.22917 13.229167,13.22917 z"
       style="fill:none;stroke:#000000;stroke-width:1;stroke-linecap:round;stroke-linejoin:miter;stroke-miterlimit:4;stroke-dasharray:none;stroke-opacity:1" />
    <path
       id="path4607-4-6"
       d="M 61.189306,111.38849 V 98.159323"
       style="fill:none;stroke:#000000;stroke-width:1;stroke-linecap:round;stroke-linejoin:miter;stroke-miterlimit:4;stroke-dasharray:none;stroke-opacity:1" />
    <path
       id="path4607-4-1"
       d="M 122.04347,111.38849 V 86.253073"
       style="fill:none;stroke:#000000;stroke-width:1;stroke-linecap:round;stroke-linejoin:miter;stroke-miterlimit:4;stroke-dasharray:none;stroke-opacity:1" />
    <path
       id="path4832-4"
       d="m 108.8143,124.61766 c 6.61459,0 13.2712,-5.29168 13.24838,-13.19393 -0.0192,-6.64982 -5.31087,-13.264411 -13.24838,-13.264411 -7.93749,0 -13.22916,6.614591 -13.22916,13.229171 0,6.61458 5.29167,13.22917 13.22916,13.22917 z"
       style="fill:none;stroke:#000000;stroke-width:1;stroke-linecap:round;stroke-linejoin:miter;stroke-miterlimit:4;stroke-dasharray:none;stroke-opacity:1" />
    <path
       id="path4955"
       d="M 225.23097,98.159322 251.6893,124.61766"
       style="fill:none;stroke:#000000;stroke-width:1;stroke-linecap:round;stroke-linejoin:miter;stroke-miterlimit:4;stroke-dasharray:none;stroke-opacity:1" />
    <path
       id="path4957"
       d="M 251.6893,98.159322 225.23097,124.61766"
       style="fill:none;stroke:#000000;stroke-width:1;stroke-linecap:round;stroke-linejoin:miter;stroke-miterlimit:4;stroke-dasharray:none;stroke-opacity:1" />
  </g>
</svg>
