<?xml version="1.0" encoding="UTF-8" standalone="no"?>
<svg
   xmlns:dc="http://purl.org/dc/elements/1.1/"
   xmlns:cc="http://creativecommons.org/ns#"
   xmlns:rdf="http://www.w3.org/1999/02/22-rdf-syntax-ns#"
   xmlns:svg="http://www.w3.org/2000/svg"
   xmlns="http://www.w3.org/2000/svg"
   class="logo"
   id="svg8"
   version="1.1"
   viewBox="0"
   height="95.846809"
   width="558.28131">
  <defs
     id="defs2" />
  <metadata
     id="metadata5">
    <rdf:RDF>
      <cc:Work
         rdf:about="">
        <dc:format>image/svg+xml</dc:format>
        <dc:type
           rdf:resource="http://purl.org/dc/dcmitype/StillImage" />
        <dc:title></dc:title>
      </cc:Work>
    </rdf:RDF>
  </metadata>
  <g
     id="svg-a"
     class="logo__letter logo__letter--a">
    <path
       style="fill:none;stroke:#000000;stroke-width:4;stroke-linecap:round;stroke-linejoin:round;stroke-miterlimit:4;stroke-dasharray:none;stroke-opacity:1;paint-order:normal"
       d="m 68.000001,89.761354 c 0,0 0,-28.800017 0,-32.000012 0,-15.999997 -12.8,-31.999994 -32,-31.999994 C 16.800001,25.761348 4,41.761345 4,57.761342 c 0,16.000001 12.800001,32.000012 32.000001,32.000012 19.2,0 32,-16.000011 32,-32.000012" />
  </g>
  <g
     class="logo__letter logo__letter--n"
     id="svg-n">
    <path
       d="m 87.680111,25.761345 v 64.000009 c 0,0 0,-28.800019 0,-32.000013 0,-15.999998 12.799999,-31.999996 32.000009,-31.999996 19.20001,0 32.00001,15.999998 32.00001,31.999996 0,3.199994 0,32.000013 0,32.000013"
       style="fill:none;stroke:#000000;stroke-width:4;stroke-linecap:round;stroke-linejoin:round;stroke-miterlimit:4;stroke-dasharray:none;stroke-opacity:1;paint-order:normal" />
  </g>
  <g
     class="logo__letter logo__letter--d"
     id="svg-d">
    <path
       d="m 235.294,6.0854539 -0.008,51.8280311 c -0.002,16.000006 -12.79249,31.854989 -31.99249,31.854989 -19.19998,0 -31.99998,-15.849992 -31.99998,-31.849988 0,-15.999997 12.8,-31.999983 31.99998,-31.999983 19.2,0 31.99491,15.997017 31.99491,31.997004"
       style="fill:none;stroke:#000000;stroke-width:4;stroke-linecap:round;stroke-linejoin:round;stroke-miterlimit:4;stroke-dasharray:none;stroke-opacity:1;paint-order:normal" />
  </g>
  <g
     class="logo__letter logo__letter--e"
     id="svg-e">
    <path
       d="m 254.94566,57.768417 h 63.97114 c 0.01,0 0.0288,0.0097 0.0288,-1.29e-4 0,-15.999863 -12.84537,-31.999857 -32.01444,-31.999857 -19.19132,1.1e-5 -31.98556,15.999994 -31.98556,31.999986 0,16.000016 12.79424,32.000007 31.98556,32.000007 h 18.59641"
       style="fill:none;stroke:#000000;stroke-width:4;stroke-linecap:round;stroke-linejoin:round;stroke-miterlimit:4;stroke-dasharray:none;stroke-opacity:1;paint-order:normal" />
  </g>
  <g
     id="svg-dot">
    <path
       d="m 319.00038,89.710844 v 0"
       style="fill:none;stroke:#000000;stroke-width:4;stroke-linecap:round;stroke-linejoin:round;stroke-miterlimit:4;stroke-dasharray:none;stroke-opacity:1;paint-order:normal" />
  </g>
  <g
     class="logo__letter logo__letter--m"
     id="svg-m">
    <path
       d="m 338.61407,25.746858 v 63.999996 c 0,0 0,-28.799997 0,-32.000006 0,-15.99999 12.80001,-31.99999 31.99999,-31.99999 19.19999,10e-6 31.99998,16 31.99998,31.99999 0,3.200009 0,32.000006 0,32.000006 0,0 2e-5,-28.799997 2e-5,-32.000006 0,-15.99999 12.79999,-31.99999 31.99998,-31.99999 19.2,0 31.99999,16.915049 31.99999,31.99999 0,3.200009 0,32.000006 0,32.000006"
       style="fill:none;stroke:#000000;stroke-width:4;stroke-linecap:round;stroke-linejoin:round;stroke-miterlimit:4;stroke-dasharray:none;stroke-opacity:1;paint-order:normal" />
  </g>
  <g
     class="logo__letter logo__letter--x"
     id="svg-x">
    <path
       d="m 518.22073,57.763423 32,-32"
       style="fill:none;stroke:#000000;stroke-width:4;stroke-linecap:round;stroke-linejoin:round;stroke-miterlimit:4;stroke-dasharray:none;stroke-opacity:1" />
    <path
       d="m 518.22073,57.763423 32,32.000001"
       style="fill:none;stroke:#000000;stroke-width:4;stroke-linecap:round;stroke-linejoin:round;stroke-miterlimit:4;stroke-dasharray:none;stroke-opacity:1" />
    <path
       d="m 518.22073,57.763418 -32,32.000006"
       style="fill:none;stroke:#000000;stroke-width:4;stroke-linecap:round;stroke-linejoin:round;stroke-miterlimit:4;stroke-dasharray:none;stroke-opacity:1" />
    <path
       id="path895"
       d="m 518.22073,57.763423 -32,-32"
       style="fill:none;stroke:#000000;stroke-width:4;stroke-linecap:round;stroke-linejoin:round;stroke-miterlimit:4;stroke-dasharray:none;stroke-opacity:1" />
  </g>
</svg>
