<?xml version="1.0" encoding="UTF-8" standalone="no"?>
<!-- Created with Inkscape (http://www.inkscape.org/) -->

<svg
   xmlns:dc="http://purl.org/dc/elements/1.1/"
   xmlns:cc="http://creativecommons.org/ns#"
   xmlns:rdf="http://www.w3.org/1999/02/22-rdf-syntax-ns#"
   xmlns:svg="http://www.w3.org/2000/svg"
   xmlns="http://www.w3.org/2000/svg"
   xmlns:sodipodi="http://sodipodi.sourceforge.net/DTD/sodipodi-0.dtd"
   xmlns:inkscape="http://www.inkscape.org/namespaces/inkscape"
   width="544"
   height="860.41602"
   viewBox="0 0 143.93333 227.65175"
   version="1.1"
   id="svg844"
   inkscape:version="0.92.3 (2405546, 2018-03-11)"
   sodipodi:docname="c.svg">
  <defs
     id="defs838" />
  <sodipodi:namedview
     id="base"
     pagecolor="#ffffff"
     bordercolor="#666666"
     borderopacity="1.0"
     inkscape:pageopacity="0.0"
     inkscape:pageshadow="2"
     inkscape:zoom="1"
     inkscape:cx="274.69628"
     inkscape:cy="415.56787"
     inkscape:document-units="px"
     inkscape:current-layer="layer1"
     showgrid="false"
     units="px"
     inkscape:snap-grids="false"
     inkscape:snap-bbox="false"
     inkscape:bbox-paths="true"
     inkscape:bbox-nodes="true"
     inkscape:snap-bbox-edge-midpoints="true"
     inkscape:snap-bbox-midpoints="true"
     inkscape:snap-nodes="true"
     inkscape:window-width="1920"
     inkscape:window-height="1017"
     inkscape:window-x="1912"
     inkscape:window-y="-8"
     inkscape:window-maximized="1"
     fit-margin-top="16"
     fit-margin-left="16"
     fit-margin-right="16"
     fit-margin-bottom="16"
     inkscape:snap-center="false"
     inkscape:snap-object-midpoints="false"
     inkscape:object-paths="true"
     inkscape:snap-intersection-paths="true" />
  <metadata
     id="metadata841">
    <rdf:RDF>
      <cc:Work
         rdf:about="">
        <dc:format>image/svg+xml</dc:format>
        <dc:type
           rdf:resource="http://purl.org/dc/dcmitype/StillImage" />
        <dc:title />
      </cc:Work>
    </rdf:RDF>
  </metadata>
  <g
     inkscape:label="template"
     inkscape:groupmode="layer"
     id="layer1"
     transform="translate(91.319035,-19.627146)"
     style="display:none"
     sodipodi:insensitive="true">
    <path
       style="fill:none;fill-rule:evenodd;stroke:none;stroke-width:0.26458332px;stroke-linecap:butt;stroke-linejoin:miter;stroke-opacity:1"
       d="m -87.085702,23.86048 135.46667,-10e-7 V 243.04555 h -135.46667 z"
       id="path1391-5"
       inkscape:connector-curvature="0"
       sodipodi:nodetypes="ccccc" />
    <path
       style="fill:none;fill-rule:evenodd;stroke:none;stroke-width:0.26458332px;stroke-linecap:butt;stroke-linejoin:miter;stroke-opacity:1"
       d="M -87.085702,65.719678 H 48.380968 V 201.18635 h -135.46667 z"
       id="path1391-7-4-4-6"
       inkscape:connector-curvature="0"
       sodipodi:nodetypes="ccccc" />
    <path
       style="fill:none;fill-rule:evenodd;stroke:none;stroke-width:0.26458332px;stroke-linecap:butt;stroke-linejoin:miter;stroke-opacity:1"
       d="m -87.085702,23.860479 h 25.87096 V 243.04555 h -25.87096 z"
       id="path1391-7-4-0-5"
       inkscape:connector-curvature="0"
       sodipodi:nodetypes="ccccc" />
    <path
       style="fill:none;fill-rule:evenodd;stroke:none;stroke-width:0.26458332px;stroke-linecap:butt;stroke-linejoin:miter;stroke-opacity:1"
       d="M -87.085702,201.18635 V 175.3154 h 135.46667 v 25.87095 z"
       id="path1391-7-4-0-0-3-6"
       inkscape:connector-curvature="0"
       sodipodi:nodetypes="ccccc" />
    <path
       style="fill:none;fill-rule:evenodd;stroke:none;stroke-width:0.26458332px;stroke-linecap:butt;stroke-linejoin:miter;stroke-opacity:1"
       d="m -87.085702,91.590638 v -25.87095 h 135.46667 v 25.87095 z"
       id="path1391-7-4-0-0-3-7-3"
       inkscape:connector-curvature="0"
       sodipodi:nodetypes="ccccc" />
    <path
       style="fill:none;fill-rule:evenodd;stroke:none;stroke-width:0.26458332px;stroke-linecap:butt;stroke-linejoin:miter;stroke-opacity:1"
       d="M -87.085701,243.04555 V 217.17459 H 48.380967 v 25.87096 z"
       id="path1391-7-4-0-0-3-3-1"
       inkscape:connector-curvature="0"
       sodipodi:nodetypes="ccccc" />
    <path
       style="fill:none;fill-rule:evenodd;stroke:none;stroke-width:0.26458332px;stroke-linecap:butt;stroke-linejoin:miter;stroke-opacity:1"
       d="m -87.085702,49.731439 v -25.87096 h 135.46667 v 25.87096 z"
       id="path1391-7-4-0-0-3-2-0"
       inkscape:connector-curvature="0"
       sodipodi:nodetypes="ccccc" />
    <circle
       style="fill:#000000;fill-opacity:0.20786516;fill-rule:nonzero;stroke:none;stroke-width:0.02;stroke-linecap:butt;stroke-linejoin:round;stroke-miterlimit:4;stroke-dasharray:none;stroke-dashoffset:0;stroke-opacity:1;paint-order:markers fill stroke"
       id="path1832-2"
       cx="-19.352367"
       cy="133.45302"
       r="67.73333" />
    <circle
       style="fill:#000000;fill-opacity:0.20786516;fill-rule:nonzero;stroke:none;stroke-width:0.02;stroke-linecap:butt;stroke-linejoin:round;stroke-miterlimit:4;stroke-dasharray:none;stroke-dashoffset:0;stroke-opacity:1;paint-order:markers fill stroke"
       id="path1832-5-59"
       cx="-19.352367"
       cy="175.31223"
       r="67.73333" />
    <circle
       style="fill:#000000;fill-opacity:0.20786516;fill-rule:nonzero;stroke:none;stroke-width:0.02;stroke-linecap:butt;stroke-linejoin:round;stroke-miterlimit:4;stroke-dasharray:none;stroke-dashoffset:0;stroke-opacity:1;paint-order:markers fill stroke"
       id="path1832-5-5-1"
       cx="-19.352367"
       cy="91.593811"
       r="67.73333" />
    <path
       style="display:inline;fill:none;fill-rule:evenodd;stroke:none;stroke-width:0.26458332px;stroke-linecap:butt;stroke-linejoin:miter;stroke-opacity:1"
       d="m 22.510008,23.860478 h 25.87096 V 243.04555 h -25.87096 z"
       id="path1391-7-4-0-5-0"
       inkscape:connector-curvature="0"
       sodipodi:nodetypes="ccccc" />
  </g>
  <g
     inkscape:groupmode="layer"
     id="layer2"
     inkscape:label="letter"
     style="display:none"
     sodipodi:insensitive="true">
    <path
       id="path1089"
       style="display:inline;fill:#000000;fill-opacity:0.20786516;fill-rule:nonzero;stroke:none;stroke-width:0.02;stroke-linecap:butt;stroke-linejoin:round;stroke-miterlimit:4;stroke-dasharray:none;stroke-dashoffset:0;stroke-opacity:1;paint-order:markers fill stroke"
       d="m 71.966667,46.092537 c -37.408086,2e-6 -67.7333313,30.325247 -67.7333296,67.733333 0,37.40809 30.3252446,67.73333 67.7333296,67.73333 13.058968,0 25.254771,-3.69565 35.598603,-10.09815 3.57431,-2.30173 5.94139,-6.31617 5.94139,-10.88348 0,-7.14407 -5.79141,-12.93548 -12.93548,-12.93548 -2.54919,0 -4.926153,0.73739 -6.929224,2.0105 -6.432236,4.02765 -13.526483,6.03565 -21.675289,6.03565 -23.11995,0 -41.862373,-18.74242 -41.862377,-41.86237 -2e-6,-23.119954 18.742423,-41.862382 41.862377,-41.86238 8.096439,1e-6 15.65604,2.298478 22.06189,6.278518 1.969115,1.211549 4.383413,1.972167 6.864993,1.972166 7.14407,-2e-6 12.93548,-5.791412 12.93548,-12.93548 0,-4.710936 -2.5183,-8.833692 -6.28214,-11.095508 C 97.125751,49.641341 85.178966,46.092536 71.966667,46.092537 Z"
       inkscape:connector-curvature="0"
       sodipodi:nodetypes="ssscsscssscsscs" />
  </g>
  <g
     inkscape:groupmode="layer"
     id="layer3"
     inkscape:label="lettre v2"
     style="display:none"
     sodipodi:insensitive="true">
    <path
       id="path1832-2-0-7-4"
       style="display:inline;fill:#000000;fill-opacity:0.20786516;fill-rule:nonzero;stroke:none;stroke-width:0.02;stroke-linecap:butt;stroke-linejoin:round;stroke-miterlimit:4;stroke-dasharray:none;stroke-dashoffset:0;stroke-opacity:1;paint-order:markers fill stroke"
       d="m 72.100466,155.73118 c -23.119954,0 -41.862379,-18.74243 -41.862377,-41.86238 0,-23.119956 18.742425,-41.862383 41.862377,-41.862381 12.770215,1e-6 24.204906,5.718057 31.883404,14.733493 2.37261,2.781153 5.90294,4.544651 9.84516,4.544651 7.14407,0 12.93548,-5.791412 12.93548,-12.93548 0,-2.634513 -0.90833,-5.233856 -2.26088,-7.277871 C 112.08366,55.828015 93.162084,46.092536 71.966667,46.092537 c -37.408086,2e-6 -67.7333313,30.325247 -67.7333296,67.733333 0,37.40809 30.3252446,67.73333 67.7333296,67.73333 20.753576,0 39.327123,-9.33381 51.750453,-24.03304 1.9008,-2.25257 3.04739,-5.16352 3.04739,-8.34228 0,-7.14407 -5.79141,-12.93548 -12.93548,-12.93548 -3.96863,0 -7.51984,1.78721 -9.84903,4.6516 -7.635105,9.09334 -19.087247,14.83118 -31.879534,14.83118 z"
       inkscape:connector-curvature="0"
       sodipodi:nodetypes="ccccccccccccccc" />
  </g>
  <g
     inkscape:groupmode="layer"
     id="layer4"
     inkscape:label="lettre from e"
     style="display:inline"
     sodipodi:insensitive="true">
    <path
       id="path1095-8-2"
       style="fill:#000000;fill-opacity:0.62745098;fill-rule:nonzero;stroke:none;stroke-width:0.02;stroke-linecap:butt;stroke-linejoin:round;stroke-miterlimit:4;stroke-dasharray:none;stroke-dashoffset:0;stroke-opacity:1;paint-order:markers fill stroke"
       d="m 24.205781,161.76352 c -26.4515201,-26.45151 -26.4515201,-69.337893 0,-95.789408 26.45151,-26.451512 69.337888,-26.451507 95.789409,7e-6 5.05161,5.051613 5.05162,13.241911 0,18.293531 -5.05162,5.05162 -13.24192,5.051613 -18.29353,0 -16.348283,-16.348275 -42.854069,-16.348278 -59.202349,-6e-6 -16.34827,16.348276 -16.34828,42.854066 0,59.202346 16.34827,16.34826 42.854058,16.34826 59.202339,-2e-5 5.05162,-5.05162 13.24191,-5.05161 18.29354,1e-5 5.05162,5.05162 5.05162,13.24191 0,18.29353 -26.451523,26.45152 -69.337889,26.45152 -95.789409,1e-5 z"
       inkscape:connector-curvature="0"
       sodipodi:nodetypes="ccccccccccc" />
  </g>
</svg>
