<?xml version="1.0" encoding="UTF-8" standalone="no"?>
<!-- Created with Inkscape (http://www.inkscape.org/) -->

<svg
   xmlns:dc="http://purl.org/dc/elements/1.1/"
   xmlns:cc="http://creativecommons.org/ns#"
   xmlns:rdf="http://www.w3.org/1999/02/22-rdf-syntax-ns#"
   xmlns:svg="http://www.w3.org/2000/svg"
   xmlns="http://www.w3.org/2000/svg"
   xmlns:sodipodi="http://sodipodi.sourceforge.net/DTD/sodipodi-0.dtd"
   xmlns:inkscape="http://www.inkscape.org/namespaces/inkscape"
   width="544"
   height="860.41602"
   viewBox="0 0 143.93333 227.65175"
   version="1.1"
   id="svg844"
   inkscape:version="0.92.3 (2405546, 2018-03-11)"
   sodipodi:docname="h.svg">
  <defs
     id="defs838" />
  <sodipodi:namedview
     id="base"
     pagecolor="#ffffff"
     bordercolor="#666666"
     borderopacity="1.0"
     inkscape:pageopacity="0.0"
     inkscape:pageshadow="2"
     inkscape:zoom="0.5"
     inkscape:cx="-503.27899"
     inkscape:cy="463.16294"
     inkscape:document-units="px"
     inkscape:current-layer="layer2"
     showgrid="false"
     units="px"
     inkscape:snap-grids="false"
     inkscape:snap-bbox="false"
     inkscape:bbox-paths="true"
     inkscape:bbox-nodes="true"
     inkscape:snap-bbox-edge-midpoints="true"
     inkscape:snap-bbox-midpoints="true"
     inkscape:snap-nodes="true"
     inkscape:window-width="1920"
     inkscape:window-height="1017"
     inkscape:window-x="1912"
     inkscape:window-y="-8"
     inkscape:window-maximized="1"
     fit-margin-top="16"
     fit-margin-left="16"
     fit-margin-right="16"
     fit-margin-bottom="16"
     inkscape:snap-midpoints="true"
     inkscape:snap-intersection-paths="true"
     inkscape:snap-smooth-nodes="true"
     inkscape:object-paths="true" />
  <metadata
     id="metadata841">
    <rdf:RDF>
      <cc:Work
         rdf:about="">
        <dc:format>image/svg+xml</dc:format>
        <dc:type
           rdf:resource="http://purl.org/dc/dcmitype/StillImage" />
        <dc:title />
      </cc:Work>
    </rdf:RDF>
  </metadata>
  <g
     inkscape:groupmode="layer"
     id="layer2"
     inkscape:label="letter"
     style="display:inline">
    <path
       sodipodi:nodetypes="csccsccsccsccsccc"
       inkscape:connector-curvature="0"
       d="m 4.233792,17.168818 c -2.3e-4,-7.144076 5.79118,-12.9354855 12.93525,-12.9354855 7.14407,0 12.93548,5.7914095 12.93571,12.9354855 l 5.6e-4,43.404322 c 11.52186,-9.069835 26.05941,-14.480604 41.86071,-14.480604 37.408088,0 67.733338,30.325246 67.733338,67.733334 l 10e-4,54.7977 c -2.3e-4,7.14407 -5.79164,12.93548 -12.93571,12.93548 -7.14407,0 -12.93548,-5.79141 -12.93525,-12.93548 l -7.9e-4,-54.79769 c -1e-5,-23.11995 -18.742425,-41.862369 -41.862378,-41.862369 -23.11995,0 -41.86237,18.742419 -41.86237,41.862369 l 6.6e-4,54.79785 c -2.3e-4,7.14407 -5.79164,12.93548 -12.93571,12.93548 -7.14384,0 -12.93525,-5.79141 -12.93502,-12.93548 l -2.3e-4,-75.727449 z"
       style="display:inline;fill:#000000;fill-opacity:0.62745098;fill-rule:evenodd;stroke:none;stroke-width:0.26458332px;stroke-linecap:butt;stroke-linejoin:miter;stroke-opacity:1"
       id="path1391-7-4-0-0-8-5-5-4-1-2" />
  </g>
</svg>
