<?xml version="1.0" encoding="UTF-8" standalone="no"?>
<!-- Created with Inkscape (http://www.inkscape.org/) -->

<svg
   xmlns:dc="http://purl.org/dc/elements/1.1/"
   xmlns:cc="http://creativecommons.org/ns#"
   xmlns:rdf="http://www.w3.org/1999/02/22-rdf-syntax-ns#"
   xmlns:svg="http://www.w3.org/2000/svg"
   xmlns="http://www.w3.org/2000/svg"
   xmlns:sodipodi="http://sodipodi.sourceforge.net/DTD/sodipodi-0.dtd"
   xmlns:inkscape="http://www.inkscape.org/namespaces/inkscape"
   width="958.22003"
   height="860.41608"
   viewBox="0 0 253.52904 227.65177"
   version="1.1"
   id="svg844"
   inkscape:version="0.92.3 (2405546, 2018-03-11)"
   sodipodi:docname="m.svg">
  <defs
     id="defs838" />
  <sodipodi:namedview
     id="base"
     pagecolor="#ffffff"
     bordercolor="#666666"
     borderopacity="1.0"
     inkscape:pageopacity="0.0"
     inkscape:pageshadow="2"
     inkscape:zoom="0.35355339"
     inkscape:cx="296.70078"
     inkscape:cy="387.38171"
     inkscape:document-units="px"
     inkscape:current-layer="layer2"
     showgrid="false"
     units="px"
     inkscape:snap-grids="false"
     inkscape:snap-bbox="false"
     inkscape:bbox-paths="true"
     inkscape:bbox-nodes="true"
     inkscape:snap-bbox-edge-midpoints="true"
     inkscape:snap-bbox-midpoints="true"
     inkscape:snap-nodes="true"
     inkscape:window-width="1920"
     inkscape:window-height="1017"
     inkscape:window-x="1912"
     inkscape:window-y="-8"
     inkscape:window-maximized="1"
     fit-margin-top="16"
     fit-margin-left="16"
     fit-margin-right="16"
     fit-margin-bottom="16"
     inkscape:snap-intersection-paths="true" />
  <metadata
     id="metadata841">
    <rdf:RDF>
      <cc:Work
         rdf:about="">
        <dc:format>image/svg+xml</dc:format>
        <dc:type
           rdf:resource="http://purl.org/dc/dcmitype/StillImage" />
        <dc:title />
      </cc:Work>
    </rdf:RDF>
  </metadata>
  <g
     inkscape:groupmode="layer"
     id="layer2"
     inkscape:label="letter"
     transform="translate(4.0083923e-7,5.7680267e-6)">
    <path
       id="path1391-7-4-0-0-8-5-5-4-1-4-6"
       style="display:inline;fill:#000000;fill-opacity:0.62745098;fill-rule:evenodd;stroke:none;stroke-width:0.26458332px;stroke-linecap:butt;stroke-linejoin:miter;stroke-opacity:1"
       d="m 71.965675,46.092542 c -15.8013,0 -30.33885,5.41077 -41.86071,14.480608 l -0.001,-1.54511 c -2.3e-4,-7.144078 -5.79164,-12.935488 -12.93571,-12.935488 -7.14407,0 -12.93549,5.79141 -12.93526,12.935488 l 2.2e-4,33.86825 2.3e-4,75.72745 c -2.3e-4,7.14407 5.79119,12.93548 12.93526,12.93548 7.14407,0 12.93548,-5.79141 12.93571,-12.93548 l -6.7e-4,-54.79785 c 0,-23.119951 18.74243,-41.86237 41.86238,-41.86237 23.11995,0 41.862365,18.742419 41.862365,41.86237 l 8e-4,54.79769 c -2.3e-4,7.14407 5.79118,12.93548 12.93525,12.93548 7.14407,0 12.93548,-5.79141 12.93571,-12.93548 l -8e-4,-54.7977 c 2.2e-4,-23.119949 18.74265,-41.86237 41.8626,-41.86237 23.11995,0 41.86237,18.742421 41.86238,41.86237 l 5.3e-4,54.79769 c -2.3e-4,7.14407 5.79118,12.93548 12.93525,12.93548 7.14407,0 12.93549,-5.79141 12.93572,-12.93548 l -0.001,-54.7977 c -9e-5,-37.40809 -30.32534,-67.733335 -67.73255,-67.733415 -22.52125,-8e-5 -42.47597,10.992315 -54.79408,27.910066 C 114.45081,57.089503 94.492485,46.092542 71.965675,46.092542 Z"
       inkscape:connector-curvature="0"
       sodipodi:nodetypes="ccccccccccccccccccccccccc" />
  </g>
</svg>
