<?xml version="1.0" encoding="UTF-8" standalone="no"?>
<!-- Created with Inkscape (http://www.inkscape.org/) -->

<svg
   xmlns:dc="http://purl.org/dc/elements/1.1/"
   xmlns:cc="http://creativecommons.org/ns#"
   xmlns:rdf="http://www.w3.org/1999/02/22-rdf-syntax-ns#"
   xmlns:svg="http://www.w3.org/2000/svg"
   xmlns="http://www.w3.org/2000/svg"
   xmlns:sodipodi="http://sodipodi.sourceforge.net/DTD/sodipodi-0.dtd"
   xmlns:inkscape="http://www.inkscape.org/namespaces/inkscape"
   width="544"
   height="860.41602"
   viewBox="0 0 143.93333 227.65175"
   version="1.1"
   id="svg844"
   inkscape:version="0.92.3 (2405546, 2018-03-11)"
   sodipodi:docname="n.svg">
  <defs
     id="defs838" />
  <sodipodi:namedview
     id="base"
     pagecolor="#ffffff"
     bordercolor="#666666"
     borderopacity="1.0"
     inkscape:pageopacity="0.0"
     inkscape:pageshadow="2"
     inkscape:zoom="0.5"
     inkscape:cx="204.04333"
     inkscape:cy="387.71452"
     inkscape:document-units="px"
     inkscape:current-layer="layer2"
     showgrid="false"
     units="px"
     inkscape:snap-grids="false"
     inkscape:snap-bbox="false"
     inkscape:bbox-paths="true"
     inkscape:bbox-nodes="true"
     inkscape:snap-bbox-edge-midpoints="true"
     inkscape:snap-bbox-midpoints="true"
     inkscape:snap-nodes="true"
     inkscape:window-width="1920"
     inkscape:window-height="1017"
     inkscape:window-x="1912"
     inkscape:window-y="-8"
     inkscape:window-maximized="1"
     fit-margin-top="16"
     fit-margin-left="16"
     fit-margin-right="16"
     fit-margin-bottom="16" />
  <metadata
     id="metadata841">
    <rdf:RDF>
      <cc:Work
         rdf:about="">
        <dc:format>image/svg+xml</dc:format>
        <dc:type
           rdf:resource="http://purl.org/dc/dcmitype/StillImage" />
        <dc:title />
      </cc:Work>
    </rdf:RDF>
  </metadata>
  <g
     inkscape:groupmode="layer"
     id="layer2"
     inkscape:label="letter">
    <path
       id="path1391-7-4-0-0-8-5-5-4-1-3"
       style="display:inline;fill:#000000;fill-opacity:0.62745098;fill-rule:evenodd;stroke:none;stroke-width:0.26458332px;stroke-linecap:butt;stroke-linejoin:miter;stroke-opacity:1"
       d="m 4.233116,59.028031 c -2.3e-4,-7.144075 5.79118,-12.935485 12.93525,-12.935485 7.14407,0 12.93548,5.79141 12.93571,12.935485 l 0.001,1.54511 c 11.52186,-9.069835 26.05941,-14.480605 41.86072,-14.480605 37.408084,0 67.733334,30.325246 67.733334,67.733334 l 0.001,54.79771 c -2.3e-4,7.14407 -5.79164,12.93548 -12.93571,12.93548 -7.14407,0 -12.93548,-5.79141 -12.93525,-12.93548 l -8e-4,-54.7977 c 0,-23.11995 -18.742424,-41.862369 -41.862374,-41.862369 -23.11995,0 -41.86238,18.742419 -41.86238,41.862369 l 6.6e-4,54.79785 c -2.3e-4,7.14408 -5.79164,12.93548 -12.93571,12.93548 -7.14407,0 -12.93548,-5.7914 -12.93525,-12.93548 l 2e-5,-75.727449 z"
       inkscape:connector-curvature="0"
       sodipodi:nodetypes="csccsccsccsccsccc" />
  </g>
</svg>
