<?xml version="1.0" encoding="UTF-8" standalone="no"?>
<!-- Created with Inkscape (http://www.inkscape.org/) -->

<svg
   xmlns:dc="http://purl.org/dc/elements/1.1/"
   xmlns:cc="http://creativecommons.org/ns#"
   xmlns:rdf="http://www.w3.org/1999/02/22-rdf-syntax-ns#"
   xmlns:svg="http://www.w3.org/2000/svg"
   xmlns="http://www.w3.org/2000/svg"
   xmlns:sodipodi="http://sodipodi.sourceforge.net/DTD/sodipodi-0.dtd"
   xmlns:inkscape="http://www.inkscape.org/namespaces/inkscape"
   width="544"
   height="860.41602"
   viewBox="0 0 143.93333 227.65175"
   version="1.1"
   id="svg844"
   inkscape:version="0.92.3 (2405546, 2018-03-11)"
   sodipodi:docname="q.svg">
  <defs
     id="defs838" />
  <sodipodi:namedview
     id="base"
     pagecolor="#ffffff"
     bordercolor="#666666"
     borderopacity="1.0"
     inkscape:pageopacity="0.0"
     inkscape:pageshadow="2"
     inkscape:zoom="0.5"
     inkscape:cx="-255.66058"
     inkscape:cy="363.29844"
     inkscape:document-units="px"
     inkscape:current-layer="layer2"
     showgrid="false"
     units="px"
     inkscape:snap-grids="false"
     inkscape:snap-bbox="false"
     inkscape:bbox-paths="true"
     inkscape:bbox-nodes="true"
     inkscape:snap-bbox-edge-midpoints="true"
     inkscape:snap-bbox-midpoints="true"
     inkscape:snap-nodes="true"
     inkscape:window-width="1920"
     inkscape:window-height="1017"
     inkscape:window-x="1912"
     inkscape:window-y="-8"
     inkscape:window-maximized="1"
     fit-margin-top="16"
     fit-margin-left="16"
     fit-margin-right="16"
     fit-margin-bottom="16" />
  <metadata
     id="metadata841">
    <rdf:RDF>
      <cc:Work
         rdf:about="">
        <dc:format>image/svg+xml</dc:format>
        <dc:type
           rdf:resource="http://purl.org/dc/dcmitype/StillImage" />
        <dc:title />
      </cc:Work>
    </rdf:RDF>
  </metadata>
  <g
     inkscape:groupmode="layer"
     id="layer2"
     inkscape:label="letter">
    <path
       id="path1391-7-4-0-0-8-5-2"
       style="display:inline;fill:#000000;fill-opacity:0.62745098;fill-rule:evenodd;stroke:none;stroke-width:0.26458332px;stroke-linecap:butt;stroke-linejoin:miter;stroke-opacity:1"
       d="m 113.82825,167.08179 c -11.52186,9.06983 -26.059406,14.4806 -41.860709,14.4806 -37.408084,0 -67.733334,-30.32524 -67.733334,-67.73333 -8.8e-4,-37.408093 30.32436,-67.733339 67.732453,-67.733339 37.40809,2e-6 67.73333,30.325248 67.73333,67.733329 l -2.3e-4,96.65706 c 2.3e-4,7.14407 -5.79118,12.93548 -12.93525,12.93548 -7.14407,0 -12.93548,-5.79141 -12.93571,-12.93548 z M 71.967102,155.69142 c -23.119951,0 -41.862375,-18.74242 -41.862375,-41.86237 0,-23.119951 18.742421,-41.862376 41.862375,-41.862376 23.119951,2e-6 41.862368,18.742428 41.862368,41.862376 0,23.11995 -18.74242,41.86237 -41.862368,41.86237 z"
       inkscape:connector-curvature="0"
       sodipodi:nodetypes="csssccsccssscs" />
  </g>
</svg>
